<mxfile host="app.diagrams.net" modified="2023-03-27T06:10:30.246Z" agent="5.0 (Macintosh; Intel Mac OS X 10_15_7) AppleWebKit/537.36 (KHTML, like Gecko) Chrome/111.0.0.0 Safari/537.36" etag="xCp6s_pYXyqfEn7u7m1A" version="20.5.3" type="github">
  <diagram id="4DCHVU_DOdG00javeeDc" name="第 1 页">
    <mxGraphModel dx="1678" dy="905" grid="1" gridSize="10" guides="1" tooltips="1" connect="1" arrows="1" fold="1" page="1" pageScale="1" pageWidth="827" pageHeight="1169" math="0" shadow="0">
      <root>
        <mxCell id="0" />
        <mxCell id="1" parent="0" />
        <mxCell id="yjmaAMI6Jm8ZspJJrVfc-9" style="edgeStyle=orthogonalEdgeStyle;rounded=0;orthogonalLoop=1;jettySize=auto;html=1;exitX=0.5;exitY=1;exitDx=0;exitDy=0;entryX=0.5;entryY=0;entryDx=0;entryDy=0;" edge="1" parent="1" source="yjmaAMI6Jm8ZspJJrVfc-1" target="yjmaAMI6Jm8ZspJJrVfc-7">
          <mxGeometry relative="1" as="geometry" />
        </mxCell>
        <mxCell id="yjmaAMI6Jm8ZspJJrVfc-1" value="开始" style="rounded=1;whiteSpace=wrap;html=1;" vertex="1" parent="1">
          <mxGeometry x="353" y="60" width="120" height="60" as="geometry" />
        </mxCell>
        <mxCell id="yjmaAMI6Jm8ZspJJrVfc-2" value="结束" style="rounded=1;whiteSpace=wrap;html=1;" vertex="1" parent="1">
          <mxGeometry x="353" y="810" width="120" height="60" as="geometry" />
        </mxCell>
        <mxCell id="yjmaAMI6Jm8ZspJJrVfc-6" value="" style="edgeStyle=orthogonalEdgeStyle;rounded=0;orthogonalLoop=1;jettySize=auto;html=1;" edge="1" parent="1" source="yjmaAMI6Jm8ZspJJrVfc-3" target="yjmaAMI6Jm8ZspJJrVfc-5">
          <mxGeometry relative="1" as="geometry" />
        </mxCell>
        <mxCell id="yjmaAMI6Jm8ZspJJrVfc-3" value="输入一个数" style="rounded=0;whiteSpace=wrap;html=1;" vertex="1" parent="1">
          <mxGeometry x="353" y="240" width="120" height="60" as="geometry" />
        </mxCell>
        <mxCell id="yjmaAMI6Jm8ZspJJrVfc-12" value="" style="edgeStyle=orthogonalEdgeStyle;rounded=0;orthogonalLoop=1;jettySize=auto;html=1;" edge="1" parent="1" source="yjmaAMI6Jm8ZspJJrVfc-5" target="yjmaAMI6Jm8ZspJJrVfc-11">
          <mxGeometry relative="1" as="geometry" />
        </mxCell>
        <mxCell id="yjmaAMI6Jm8ZspJJrVfc-13" value="是" style="edgeLabel;html=1;align=center;verticalAlign=middle;resizable=0;points=[];" vertex="1" connectable="0" parent="yjmaAMI6Jm8ZspJJrVfc-12">
          <mxGeometry x="-0.1311" y="-1" relative="1" as="geometry">
            <mxPoint as="offset" />
          </mxGeometry>
        </mxCell>
        <mxCell id="yjmaAMI6Jm8ZspJJrVfc-15" value="" style="edgeStyle=orthogonalEdgeStyle;rounded=0;orthogonalLoop=1;jettySize=auto;html=1;" edge="1" parent="1" source="yjmaAMI6Jm8ZspJJrVfc-5">
          <mxGeometry relative="1" as="geometry">
            <mxPoint x="413" y="500" as="targetPoint" />
          </mxGeometry>
        </mxCell>
        <mxCell id="yjmaAMI6Jm8ZspJJrVfc-16" value="否" style="edgeLabel;html=1;align=center;verticalAlign=middle;resizable=0;points=[];" vertex="1" connectable="0" parent="yjmaAMI6Jm8ZspJJrVfc-15">
          <mxGeometry x="-0.4351" y="1" relative="1" as="geometry">
            <mxPoint as="offset" />
          </mxGeometry>
        </mxCell>
        <mxCell id="yjmaAMI6Jm8ZspJJrVfc-5" value="输入的数与预设的数是否相同" style="rhombus;whiteSpace=wrap;html=1;rounded=0;" vertex="1" parent="1">
          <mxGeometry x="345" y="340" width="137" height="110" as="geometry" />
        </mxCell>
        <mxCell id="yjmaAMI6Jm8ZspJJrVfc-10" style="edgeStyle=orthogonalEdgeStyle;rounded=0;orthogonalLoop=1;jettySize=auto;html=1;exitX=0.5;exitY=1;exitDx=0;exitDy=0;" edge="1" parent="1" source="yjmaAMI6Jm8ZspJJrVfc-7" target="yjmaAMI6Jm8ZspJJrVfc-3">
          <mxGeometry relative="1" as="geometry" />
        </mxCell>
        <mxCell id="yjmaAMI6Jm8ZspJJrVfc-7" value="预设一个数&lt;br&gt;num = 20" style="rounded=0;whiteSpace=wrap;html=1;" vertex="1" parent="1">
          <mxGeometry x="353.5" y="150" width="120" height="60" as="geometry" />
        </mxCell>
        <mxCell id="yjmaAMI6Jm8ZspJJrVfc-17" style="edgeStyle=orthogonalEdgeStyle;rounded=0;orthogonalLoop=1;jettySize=auto;html=1;exitX=1;exitY=0.5;exitDx=0;exitDy=0;entryX=1;entryY=0.5;entryDx=0;entryDy=0;" edge="1" parent="1" source="yjmaAMI6Jm8ZspJJrVfc-11" target="yjmaAMI6Jm8ZspJJrVfc-2">
          <mxGeometry relative="1" as="geometry" />
        </mxCell>
        <mxCell id="yjmaAMI6Jm8ZspJJrVfc-11" value="输出“恭喜，猜对了”" style="whiteSpace=wrap;html=1;rounded=0;" vertex="1" parent="1">
          <mxGeometry x="570.5" y="365" width="120" height="60" as="geometry" />
        </mxCell>
        <mxCell id="yjmaAMI6Jm8ZspJJrVfc-20" value="" style="edgeStyle=orthogonalEdgeStyle;rounded=0;orthogonalLoop=1;jettySize=auto;html=1;" edge="1" parent="1" source="yjmaAMI6Jm8ZspJJrVfc-18" target="yjmaAMI6Jm8ZspJJrVfc-19">
          <mxGeometry relative="1" as="geometry" />
        </mxCell>
        <mxCell id="yjmaAMI6Jm8ZspJJrVfc-21" value="是" style="edgeLabel;html=1;align=center;verticalAlign=middle;resizable=0;points=[];" vertex="1" connectable="0" parent="yjmaAMI6Jm8ZspJJrVfc-20">
          <mxGeometry x="-0.3701" y="-1" relative="1" as="geometry">
            <mxPoint as="offset" />
          </mxGeometry>
        </mxCell>
        <mxCell id="yjmaAMI6Jm8ZspJJrVfc-23" value="" style="edgeStyle=orthogonalEdgeStyle;rounded=0;orthogonalLoop=1;jettySize=auto;html=1;" edge="1" parent="1" source="yjmaAMI6Jm8ZspJJrVfc-18" target="yjmaAMI6Jm8ZspJJrVfc-22">
          <mxGeometry relative="1" as="geometry" />
        </mxCell>
        <mxCell id="yjmaAMI6Jm8ZspJJrVfc-24" value="否" style="edgeLabel;html=1;align=center;verticalAlign=middle;resizable=0;points=[];" vertex="1" connectable="0" parent="yjmaAMI6Jm8ZspJJrVfc-23">
          <mxGeometry x="-0.099" y="1" relative="1" as="geometry">
            <mxPoint as="offset" />
          </mxGeometry>
        </mxCell>
        <mxCell id="yjmaAMI6Jm8ZspJJrVfc-18" value="输入的数大于预设的数" style="rhombus;whiteSpace=wrap;html=1;" vertex="1" parent="1">
          <mxGeometry x="325.5" y="500" width="176" height="135" as="geometry" />
        </mxCell>
        <mxCell id="yjmaAMI6Jm8ZspJJrVfc-25" style="edgeStyle=orthogonalEdgeStyle;rounded=0;orthogonalLoop=1;jettySize=auto;html=1;exitX=0;exitY=0.5;exitDx=0;exitDy=0;entryX=0;entryY=0.5;entryDx=0;entryDy=0;" edge="1" parent="1" source="yjmaAMI6Jm8ZspJJrVfc-19" target="yjmaAMI6Jm8ZspJJrVfc-2">
          <mxGeometry relative="1" as="geometry" />
        </mxCell>
        <mxCell id="yjmaAMI6Jm8ZspJJrVfc-19" value="输出“很遗憾，猜的数字偏大了”" style="whiteSpace=wrap;html=1;" vertex="1" parent="1">
          <mxGeometry x="140" y="537.5" width="120" height="60" as="geometry" />
        </mxCell>
        <mxCell id="yjmaAMI6Jm8ZspJJrVfc-26" style="edgeStyle=orthogonalEdgeStyle;rounded=0;orthogonalLoop=1;jettySize=auto;html=1;exitX=0.5;exitY=1;exitDx=0;exitDy=0;entryX=0.5;entryY=0;entryDx=0;entryDy=0;" edge="1" parent="1" source="yjmaAMI6Jm8ZspJJrVfc-22" target="yjmaAMI6Jm8ZspJJrVfc-2">
          <mxGeometry relative="1" as="geometry" />
        </mxCell>
        <mxCell id="yjmaAMI6Jm8ZspJJrVfc-22" value="输出“很遗憾，猜的数字偏小了”" style="whiteSpace=wrap;html=1;" vertex="1" parent="1">
          <mxGeometry x="353.5" y="680" width="120" height="60" as="geometry" />
        </mxCell>
      </root>
    </mxGraphModel>
  </diagram>
</mxfile>
